HIERARCHY
ROOT joint_Root
{
	OFFSET 0.0 0.0 0.0
	CHANNELS 6 Xposition Yposition Zposition Zrotation Xrotation Yrotation 
	JOINT Hips
	{
		OFFSET 4.5925 91.4895 -427.239
		CHANNELS 6 Xposition Yposition Zposition Zrotation Xrotation Yrotation 
		JOINT Spine
		{
			OFFSET 15.7357 0.0 0.0
			CHANNELS 6 Xposition Yposition Zposition Zrotation Xrotation Yrotation 
			JOINT Chest
			{
				OFFSET 8.98455 -0.406207 0.0
				CHANNELS 6 Xposition Yposition Zposition Zrotation Xrotation Yrotation 
				JOINT Neck
				{
					OFFSET 16.3773 0.0 0.0
					CHANNELS 6 Xposition Yposition Zposition Zrotation Xrotation Yrotation 
					JOINT Head
					{
						OFFSET 6.45672 0.0 0.0
						CHANNELS 6 Xposition Yposition Zposition Zrotation Xrotation Yrotation 
						End Site
						{
							OFFSET 0.0 0.0 0.0
						}
					}
				}
				JOINT Shoulder_L
				{
					OFFSET 12.9942 -0.242716 4.98039
					CHANNELS 6 Xposition Yposition Zposition Zrotation Xrotation Yrotation 
					JOINT UpperArm_L
					{
						OFFSET 5.34809 0.0 0.0
						CHANNELS 6 Xposition Yposition Zposition Zrotation Xrotation Yrotation 
						JOINT LowerArm_L
						{
							OFFSET 24.3286 1.87007e-05 0.0
							CHANNELS 6 Xposition Yposition Zposition Zrotation Xrotation Yrotation 
							JOINT Hand_L
							{
								OFFSET 22.2916 0.0 0.0
								CHANNELS 6 Xposition Yposition Zposition Zrotation Xrotation Yrotation 
								End Site
								{
									OFFSET 0.0 0.0 0.0
								}
							}
						}
					}
				}
				JOINT Shoulder_R
				{
					OFFSET 12.9945 -0.242716 -4.98039
					CHANNELS 6 Xposition Yposition Zposition Zrotation Xrotation Yrotation 
					JOINT UpperArm_R
					{
						OFFSET -5.34813 0.0 0.0
						CHANNELS 6 Xposition Yposition Zposition Zrotation Xrotation Yrotation 
						JOINT LowerArm_R
						{
							OFFSET -24.3289 0.000322201 0.0
							CHANNELS 6 Xposition Yposition Zposition Zrotation Xrotation Yrotation 
							JOINT Hand_R
							{
								OFFSET -22.2915 -0.000108084 0.0
								CHANNELS 6 Xposition Yposition Zposition Zrotation Xrotation Yrotation 
								End Site
								{
									OFFSET 0.0 0.0 0.0
								}
							}
						}
					}
				}
			}
		}
		JOINT UpperLeg_L
		{
			OFFSET -2.19248 -6.46944 0.0
			CHANNELS 6 Xposition Yposition Zposition Zrotation Xrotation Yrotation 
			JOINT LowerLeg_L
			{
				OFFSET 39.0811 0.0 -1.23785e-05
				CHANNELS 6 Xposition Yposition Zposition Zrotation Xrotation Yrotation 
				JOINT Foot_L
				{
					OFFSET 40.9854 0.0 -1.26872e-05
					CHANNELS 6 Xposition Yposition Zposition Zrotation Xrotation Yrotation 
					JOINT Toes_L
					{
						OFFSET 11.7543 0.0 0.0
						CHANNELS 6 Xposition Yposition Zposition Zrotation Xrotation Yrotation 
						End Site
						{
							OFFSET 0.0 0.0 0.0
						}
					}
				}
			}
		}
		JOINT UpperLeg_R
		{
			OFFSET -2.19251 6.46944 0.0
			CHANNELS 6 Xposition Yposition Zposition Zrotation Xrotation Yrotation 
			JOINT LowerLeg_R
			{
				OFFSET -39.0811 -0.00228153 -0.0401928
				CHANNELS 6 Xposition Yposition Zposition Zrotation Xrotation Yrotation 
				JOINT Foot_R
				{
					OFFSET -40.9854 0.0 0.0
					CHANNELS 6 Xposition Yposition Zposition Zrotation Xrotation Yrotation 
					JOINT Toes_R
					{
						OFFSET -11.7543 0.0 0.0
						CHANNELS 6 Xposition Yposition Zposition Zrotation Xrotation Yrotation 
						End Site
						{
							OFFSET 0.0 0.0 0.0
						}
					}
				}
			}
		}
	}
}
MOTION
Frames:	5
Frame Time:	0.0333333
0.000000 0.000000 0.000000 0.000000 0.000000 -0.000000 -5.435200 91.553200 -0.605412 89.361100 8.874700 3.014650 15.735700 0.000005 -0.000001 105.329000 86.019200 -108.237000 8.984550 -0.406207 -0.000000 -0.022199 2.301740 -5.812180 16.377300 -0.000001 -0.000001 3.801610 -3.385290 3.482600 6.456720 -0.000001 -0.000000 -2.563930 -0.406341 -6.613320 12.994200 -0.242716 4.980390 -92.101600 5.881090 -70.296100 5.348090 -0.000007 -0.000001 -62.471700 24.002000 -8.670680 24.328600 0.000019 0.000005 5.957140 19.100200 -17.686900 22.291600 -0.000001 0.000005 14.946800 5.149400 3.957580 12.994500 -0.242716 -4.980390 92.723600 -8.003790 -71.137100 -5.348130 -0.000001 -0.000004 -54.038600 -61.599800 -93.152600 -24.328900 0.000322 -0.000009 -1.817230 -1.255890 -55.342700 -22.291500 -0.000108 -0.000004 19.513900 5.519940 -7.359490 -2.192480 -6.469440 -0.000000 -172.815000 -7.185810 -7.397260 39.081100 -0.000007 -0.000012 -0.184887 0.382752 25.783000 40.985400 -0.000006 -0.000013 -2.178230 11.934000 -65.533200 11.754300 -0.000000 0.000003 -0.000194 -0.001802 -16.645600 -2.192510 6.469440 -0.000001 179.782000 28.930000 176.203000 -39.081100 -0.002282 -0.040193 -0.084979 0.186355 25.350500 -40.985400 0.000008 0.000006 6.222710 8.956090 -69.647900 -11.754300 -0.000006 -0.000006 -0.002847 -0.038857 -18.153300
0.000000 0.000000 0.000000 0.000000 0.000000 -0.000000 -5.313140 91.555900 -0.670350 89.366400 8.430140 3.014730 15.735700 0.000005 -0.000001 104.791000 86.008500 -107.619000 8.984550 -0.406207 -0.000000 0.014129 2.228600 -5.653170 16.377300 -0.000001 -0.000001 3.756960 -3.327390 3.512840 6.456720 -0.000001 -0.000000 -2.414490 -0.260686 -6.566650 12.994200 -0.242716 4.980390 -92.169500 6.071760 -70.294800 5.348090 -0.000007 -0.000001 -62.057600 24.780700 -9.230550 24.328600 0.000019 0.000005 6.243770 18.744700 -18.801600 22.291600 -0.000001 0.000005 14.854400 5.153880 3.850270 12.994500 -0.242716 -4.980390 92.522300 -7.529410 -71.418700 -5.348130 -0.000001 -0.000004 -51.610000 -60.958000 -89.403700 -24.328900 0.000322 -0.000009 -2.069850 -1.287000 -58.123300 -22.291500 -0.000108 -0.000004 19.619200 5.511710 -7.012950 -2.192480 -6.469440 -0.000000 -172.898000 -7.373660 -7.366730 39.081100 -0.000007 -0.000012 -0.186317 0.384849 25.833300 40.985400 -0.000006 -0.000013 -2.131450 11.711300 -65.586100 11.754300 -0.000000 0.000003 -0.000206 -0.001900 -16.649200 -2.192510 6.469440 -0.000001 179.711000 28.493700 176.102000 -39.081100 -0.002282 -0.040193 -0.092155 0.200944 25.411900 -40.985400 0.000008 0.000006 5.970350 9.039800 -69.538800 -11.754300 -0.000006 -0.000006 -0.002879 -0.039220 -18.168100
0.000000 0.000000 0.000000 0.000000 0.000000 -0.000000 -5.147380 91.560900 -0.712249 89.368100 7.816630 3.101420 15.735700 0.000005 -0.000001 104.073000 85.979000 -106.823000 8.984550 -0.406207 -0.000000 0.092304 2.138940 -5.499260 16.377300 -0.000001 -0.000001 3.662730 -3.229120 3.426780 6.456720 -0.000001 -0.000000 -2.247450 -0.177911 -6.236420 12.994200 -0.242716 4.980390 -92.211300 6.194420 -70.310400 5.348090 -0.000007 -0.000001 -61.874100 25.392300 -9.801940 24.328600 0.000019 0.000005 6.438760 18.591800 -19.492100 22.291600 -0.000001 0.000005 14.604900 5.163110 3.627670 12.994500 -0.242716 -4.980390 92.226400 -6.828170 -71.892300 -5.348130 -0.000001 -0.000004 -48.338700 -59.612200 -83.818200 -24.328900 0.000322 -0.000009 -2.642550 -1.392380 -62.220000 -22.291500 -0.000108 -0.000004 19.789400 5.500340 -6.547430 -2.192480 -6.469440 -0.000000 -172.997000 -7.737720 -7.193210 39.081100 -0.000007 -0.000012 -0.183257 0.377509 25.893900 40.985400 -0.000006 -0.000013 -2.055030 11.405700 -65.685000 11.754300 -0.000000 0.000003 -0.000197 -0.001827 -16.646500 -2.192510 6.469440 -0.000001 179.571000 28.001200 176.100000 -39.081100 -0.002282 -0.040193 -0.095104 0.206482 25.483800 -40.985400 0.000008 0.000006 5.846300 9.235770 -69.460500 -11.754300 -0.000006 -0.000006 -0.002825 -0.038610 -18.143200
0.000000 0.000000 0.000000 0.000000 0.000000 -0.000000 -4.964080 91.560100 -0.783700 89.353100 7.153200 3.135750 15.735700 0.000005 -0.000001 102.986000 85.972400 -105.654000 8.984550 -0.406207 -0.000000 0.135350 1.987150 -5.333750 16.377300 -0.000001 -0.000001 3.496390 -3.084510 3.283690 6.456720 -0.000001 -0.000000 -2.017250 -0.169172 -5.831950 12.994200 -0.242716 4.980390 -92.249300 6.330250 -70.392300 5.348090 -0.000007 -0.000001 -61.637300 26.419100 -10.343800 24.328600 0.000019 0.000005 6.517710 18.272700 -20.020800 22.291600 -0.000001 0.000005 14.462300 5.163370 3.621470 12.994500 -0.242716 -4.980390 91.813600 -5.776530 -72.537100 -5.348130 -0.000001 -0.000004 -44.274800 -57.391700 -76.603100 -24.328900 0.000322 -0.000009 -2.552570 -1.057010 -67.510700 -22.291500 -0.000108 -0.000004 20.254700 5.487660 -6.044760 -2.192480 -6.469440 -0.000000 -173.094000 -8.083730 -7.129310 39.081100 -0.000007 -0.000012 -0.184670 0.378433 26.011900 40.985400 -0.000006 -0.000013 -1.967880 11.108700 -65.792700 11.754300 -0.000000 0.000003 -0.000195 -0.001814 -16.646000 -2.192510 6.469440 -0.000001 179.462000 27.518600 175.998000 -39.081100 -0.002282 -0.040193 -0.100322 0.216399 25.589700 -40.985400 0.000008 0.000006 5.657090 9.471360 -69.363300 -11.754300 -0.000006 -0.000006 -0.002834 -0.038715 -18.147500
0.000000 0.000000 0.000000 0.000000 0.000000 -0.000000 -4.730960 91.559200 -0.864048 89.357000 6.316140 3.195300 15.735700 0.000005 -0.000001 101.608000 85.954900 -104.181000 8.984550 -0.406207 -0.000000 0.204650 1.797090 -5.146840 16.377300 -0.000001 -0.000001 3.293380 -2.861740 2.975180 6.456720 -0.000001 -0.000000 -1.891470 -0.187442 -5.232580 12.994200 -0.242716 4.980390 -92.291700 6.466930 -70.439200 5.348090 -0.000007 -0.000001 -61.484900 27.472000 -10.856700 24.328600 0.000019 0.000005 6.512930 18.023800 -20.252400 22.291600 -0.000001 0.000005 14.107700 5.165580 3.567840 12.994500 -0.242716 -4.980390 91.312900 -4.452040 -73.551400 -5.348130 -0.000001 -0.000004 -39.693400 -54.239900 -68.124000 -24.328900 0.000322 -0.000009 -1.652770 -0.486923 -73.583600 -22.291500 -0.000108 -0.000004 20.894000 5.477910 -5.669460 -2.192480 -6.469440 -0.000000 -173.228000 -8.623920 -6.994790 39.081100 -0.000007 -0.000012 -0.182329 0.371616 26.134600 40.985400 -0.000006 -0.000013 -1.835020 10.825500 -65.933300 11.754300 -0.000000 0.000003 -0.000195 -0.001811 -16.645900 -2.192510 6.469440 -0.000001 179.283000 26.917700 175.892000 -39.081100 -0.002282 -0.040193 -0.108851 0.232765 25.727900 -40.985400 0.000008 0.000006 5.420130 9.807630 -69.247100 -11.754300 -0.000006 -0.000006 -0.002724 -0.037438 -18.095600
